<svg width="24" height="24" viewBox="0 0 24 24" fill="none" xmlns="http://www.w3.org/2000/svg">
<g clip-path="url(#clip0_4710_952)">
<path d="M14.5882 2.34074C13.9013 2.15667 13.2017 2.54753 13.0228 3.21538L12.8287 3.93982C9.84595 3.73912 7.05831 5.60463 6.27579 8.52505L6.01899 9.48343C5.55999 11.1964 4.51259 12.6992 3.05638 13.7406L2.28906 14.2912C1.99117 14.5026 1.84839 14.8647 1.91972 15.2195C1.99104 15.5742 2.26346 15.8616 2.6205 15.9572L18.1443 20.1168C18.5014 20.2125 18.8809 20.0999 19.1201 19.8283C19.3592 19.5567 19.4166 19.1717 19.2643 18.8398L18.8741 17.983C18.1347 16.3493 17.979 14.5241 18.438 12.8111L18.6948 11.8527C19.4774 8.9323 17.9959 5.92291 15.3125 4.60535L15.5066 3.88091C15.6855 3.21306 15.2751 2.5248 14.5882 2.34074ZM13.6176 5.96296C16.02 6.60665 17.4578 9.01799 16.832 11.3536L16.5752 12.3119C16.0909 14.1193 16.1582 16.0259 16.7551 17.8034L4.98029 14.6484C6.38598 13.4074 7.39757 11.7899 7.88185 9.98258L8.13865 9.0242C8.76446 6.68862 11.2153 5.31926 13.6176 5.96296ZM12.5427 19.91L10.0589 19.2444L7.57507 18.5789C7.4032 19.2203 7.49843 19.905 7.84282 20.4826C8.18722 21.0602 8.75207 21.4825 9.41184 21.6593C10.0716 21.836 10.7719 21.7527 11.359 21.4247C11.946 21.0968 12.3708 20.5514 12.5427 19.91Z" fill="black"/>
</g>
<defs>
<clipPath id="clip0_4710_952">
<rect width="18" height="20" fill="white" transform="translate(5.8949 0.0113831) rotate(15)"/>
</clipPath>
</defs>
</svg>
